# xmcd CD database file
#
# Track frame offsets:
#	150
#	19335
#	39506
#	60724
#	80980
#	102942
#	125184
#	148985
#	174730
#	196313
#	218234
#	239599
#
# Disc length: 3495 seconds
#
# Revision: 0
# Processed by: cddbd v1.4PL0 Copyright (c) Steve Scherf et al.
# Submitted via: CDex 1.50beta10
#
DISCID=bf0da50c
DTITLE=Frankie Ruiz - Leyendas de la salsa - 1
DYEAR=1900
DGENRE=Salsa
TTITLE0=Voy Pa'Encima
TTITLE1=Tu eres
TTITLE2=Deseándote
TTITLE3=Mi libertad
TTITLE4=Bailando
TTITLE5=Tu me vuelves loco
TTITLE6=La rueda vuelve a rodar
TTITLE7=Esta cobardía
TTITLE8=Quién es tu amigo?
TTITLE9=Primero fui yo
TTITLE10=Como una estrella
TTITLE11=Tú con él
EXTD=
EXTT0=
EXTT1=
EXTT2=
EXTT3=
EXTT4=
EXTT5=
EXTT6=
EXTT7=
EXTT8=
EXTT9=
EXTT10=
EXTT11=
PLAYORDER=
